<?xml version="1.0" encoding="utf-8"?>
<!-- Generator: Adobe Illustrator 23.0.6, SVG Export Plug-In . SVG Version: 6.00 Build 0)  -->
<svg version="1.1" id="Layer_1" xmlns="http://www.w3.org/2000/svg" xmlns:xlink="http://www.w3.org/1999/xlink" x="0px" y="0px"
	 viewBox="0 0 1243.6 415.2" style="enable-background:new 0 0 1243.6 415.2;" xml:space="preserve">
<style type="text/css">
	.st0{fill-rule:evenodd;clip-rule:evenodd;fill:#FFFFFF;}
	.st1{fill:#FFFFFF;}
</style>
<title>akoam</title>
<path class="st0" d="M123.7,248.1c0-7.2-0.2-14.3,0.1-21.4c0.2-6.9,5-9.6,10.9-6.3c12.9,7.2,25.6,14.5,38.3,22.1
	c5.7,3.4,5.7,9.4,0,12.8c-12.7,7.5-25.4,14.9-38.3,22c-6,3.3-10.7,0.5-10.9-6.3C123.5,263.3,123.7,255.7,123.7,248.1L123.7,248.1z"
	/>
<path class="st1" d="M886.2,134.7c-16.6,0-30,13.4-30,30l0,0l0,0v198.2h60V134.7H886.2z"/>
<path class="st1" d="M319.2,134.7c-16.6,0-30,13.4-30,30l0,0l0,0v198.2h60V134.7H319.2z"/>
<path class="st1" d="M210.7,155.9l-0.8-0.6l-0.9-0.6c-52-35.5-122.9-22.1-158.4,29.9c-24,35.1-26.4,80.6-6.3,118.1h-14
	c-16.6-0.1-30,13.3-30.1,29.9l0,0l0,0l-0.1,30l30,0.1l114.7,0.4c63,0.2,114.1-50.7,114.3-113.7C259.1,212.2,241.1,177.3,210.7,155.9
	L210.7,155.9z M91.1,248.9c0.2-29.5,24.3-53.1,53.8-52.9c29.5,0.2,53.1,24.3,52.9,53.8c-0.2,29.5-24.3,53.1-53.8,52.9
	c-12.6-0.1-24.8-4.7-34.3-12.9h0.1C97.9,279.6,91,264.6,91.1,248.9L91.1,248.9z"/>
<path class="st1" d="M754,217.7h-31.5l19.9-20.2c11.6-11.8,11.5-30.8-0.3-42.4l0,0l0,0L720.6,134l-21,21.4l-61,61.9l-0.4,0.4h0.4v60
	h114.7c7,0,12.7,5.7,12.7,12.7s-5.7,12.7-12.7,12.7H638.6v-0.3l-0.3,0.3h-44c29.9-55.4,9.2-124.6-46.2-154.5s-124.6-9.2-154.5,46.2
	s-9.2,124.6,46.2,154.5l0,0c3.3,1.8,6.7,3.4,10.1,4.8l49.2-51.5c-29.7,2.9-56.1-18.8-59-48.5s18.8-56.1,48.5-59
	c29.7-2.9,56.1,18.8,59,48.5c0.5,4.6,0.3,9.3-0.4,13.9c0,2.3-0.4,4.6-1,6.8c-0.7,3.6-1.9,7.2-3.6,10.4c-0.9,1.7-1.9,3.3-3.2,4.8l0,0
	l-6,6.3l-0.4,0.5l-0.5,0.5l-41.9,43.8l0.1,0.1l-10.6,11.1l0,0l-9.9,10.3c-11.5,12-11,31,0.9,42.4l0,0l0,0l21.7,20.7l20.7-21.7
	l29.1-30.4H758V363c40.1-2.6,70.4-37.2,67.8-77.3C823.3,247.7,792,218.1,754,217.7z"/>
<path class="st1" d="M598.9,0L598.9,0z"/>
<path class="st0" d="M1189.5,268.2l-39.1,23.7l13.4,26.6h-97.5l50.2-88.9l14.8,23.6l38.2-20.6l-53-97.8L989.5,363h254L1189.5,268.2z
	"/>
</svg>
